<?xml version="1.0" encoding="UTF-8"?>
<svg id="objects" xmlns="http://www.w3.org/2000/svg" viewBox="0 0 450 450">
  <defs>
    <style>
      .cls-1 {
        fill: #33495e;
      }

      .cls-2 {
        fill: #fff;
      }

      .cls-3 {
        fill: #282151;
      }

      .cls-4 {
        fill: #f57d7e;
      }

      .cls-5 {
        fill: #e5656c;
      }

      .cls-6 {
        fill: #7f9ab5;
      }

      .cls-7 {
        fill: #62748f;
      }

      .cls-8 {
        fill: #7c9ecb;
      }

      .cls-9 {
        opacity: .3;
      }

      .cls-9, .cls-10 {
        fill: #fefefd;
      }

      .cls-11 {
        fill: #0c032e;
      }

      .cls-12 {
        fill: #798ca3;
      }

      .cls-13 {
        fill: #ffdabb;
      }

      .cls-14 {
        fill: #f3f3f3;
      }

      .cls-15 {
        fill: #465c77;
      }

      .cls-16 {
        fill: #484463;
      }
    </style>
  </defs>
  <g>
    <g>
      <polygon class="cls-16" points="323.11 328.11 126.76 328.11 128.21 320.63 321.66 320.63 323.11 328.11"/>
      <polygon class="cls-16" points="335.07 358.74 115.11 358.74 116.83 350.34 333.35 350.34 335.07 358.74"/>
      <polygon class="cls-16" points="348.54 396.04 101.46 396.04 104.09 383.82 345.92 383.82 348.54 396.04"/>
    </g>
    <g>
      <polygon class="cls-13" points="147.8 414.98 173.72 274.37 166.2 272.7 132.46 414.98 147.8 414.98"/>
      <polygon class="cls-6" points="141.53 414.98 170.63 273.69 163.1 272.02 126.05 414.98 141.53 414.98"/>
    </g>
    <g>
      <rect class="cls-6" x="151.62" y="388.06" width="14.75" height="4.24"/>
      <path class="cls-16" d="M162.04,390.51v-1.85c0-1.68-1.37-3.06-3.06-3.06s-3.06,1.38-3.06,3.06v1.85h6.11Z"/>
    </g>
    <g>
      <rect class="cls-6" x="158.99" y="351.7" width="11.81" height="3.39"/>
      <path class="cls-11" d="M167.34,353.66v-1.48c0-1.34-1.1-2.44-2.44-2.44s-2.44,1.1-2.44,2.44v1.48h4.89Z"/>
    </g>
    <g>
      <rect class="cls-11" x="164" y="322.23" width="7.88" height="2.26"/>
      <path class="cls-11" d="M169.57,323.54v-.99c0-.9-.73-1.63-1.63-1.63s-1.63,.73-1.63,1.63v.99h3.26Z"/>
    </g>
    <g>
      <polygon class="cls-6" points="319.52 414.98 285.79 272.7 278.26 274.37 304.18 414.98 319.52 414.98"/>
      <polygon class="cls-13" points="325.93 414.98 288.89 272.02 281.36 273.69 310.45 414.98 325.93 414.98"/>
    </g>
    <g>
      <rect class="cls-6" x="285.62" y="388.06" width="14.75" height="4.24" transform="translate(585.99 780.35) rotate(180)"/>
      <path class="cls-16" d="M289.94,390.51v-1.85c0-1.68,1.37-3.06,3.06-3.06s3.06,1.38,3.06,3.06v1.85h-6.11Z"/>
    </g>
    <g>
      <rect class="cls-6" x="281.19" y="351.7" width="11.81" height="3.39" transform="translate(574.18 706.79) rotate(180)"/>
      <path class="cls-11" d="M284.64,353.66v-1.48c0-1.34,1.1-2.44,2.44-2.44s2.44,1.1,2.44,2.44v1.48h-4.89Z"/>
    </g>
    <g>
      <rect class="cls-11" x="280.11" y="322.23" width="7.88" height="2.26" transform="translate(568.09 646.72) rotate(180)"/>
      <path class="cls-11" d="M282.42,323.54v-.99c0-.9,.73-1.63,1.63-1.63s1.63,.73,1.63,1.63v.99h-3.26Z"/>
    </g>
  </g>
  <g>
    <path class="cls-7" d="M142.67,42.16h167.76c3.32,0,6.01,2.69,6.01,6.01v16.54c0,3.32-2.69,6.01-6.01,6.01H142.67c-3.32,0-6.01-2.69-6.01-6.01v-16.54c0-3.32,2.69-6.01,6.01-6.01Z"/>
    <path class="cls-8" d="M341.99,92.37l-6.55,189.21c-1.03,29.76-25.45,53.35-55.23,53.35h-107.32c-31.13,0-56.67-24.67-57.75-55.78l-6.46-186.77c-.79-22.79,14.93-41.67,34.92-41.67h163.45c20,0,35.71,18.87,34.93,41.67Z"/>
    <g>
      <g>
        <path class="cls-1" d="M225.62,303.14v40.41c-6.18,.26-17.05-.63-28.68-1.91-22.27-2.45-47.3-6.33-47.3-6.33l-31.95-32.18h107.93Z"/>
        <path class="cls-6" d="M333.61,303.14l-31.96,32.18s-23.98,3.72-45.89,6.17c-12.15,1.36-23.66,2.33-30.09,2.06v-40.41h107.94Z"/>
      </g>
      <path class="cls-7" d="M184.43,303.14h41.19v40.41c-6.18,.26-17.05-.63-28.68-1.91l-12.51-38.51Z"/>
      <path class="cls-7" d="M268.21,303.14l-12.46,38.35c-12.15,1.36-23.66,2.33-30.09,2.06v-40.41h42.55Z"/>
    </g>
    <path class="cls-13" d="M339.78,254.98c0,27.76-50.69,50.26-113.23,50.26s-113.23-22.5-113.23-50.26,50.7-50.26,113.23-50.26,113.23,22.5,113.23,50.26Z"/>
    <path class="cls-5" d="M317.04,189.94l-5.38,12.49c-2.4,5.57-5.85,10.47-10.07,14.5-8.09,7.77-19,12.35-30.66,12.38l-90.57,.26c-11.65,.03-22.59-4.49-30.73-12.21-4.24-4.01-7.72-8.88-10.14-14.44l-5.68-12.98h183.24Z"/>
    <path class="cls-5" d="M336.67,94.18c1.5,20.64-1.15,41.61-7.96,61.56l-11.66,34.2H133.8l-14.95-43.02c-4.73-13.62-6.64-28.06-5.67-42.41l1.3-19.4c1.28-18.95,17.31-34.16,35.67-34.21l14.46-.04,121.15-.34,14.36-.04c18.35-.05,34.46,15.06,35.83,34l.71,9.72Z"/>
    <path class="cls-7" d="M310.78,119.33c.17,59.98-37.92,108.72-85.08,108.85-47.16,.14-85.53-48.38-85.7-108.36-.08-26.15,7.12-50.16,19.16-68.93l132.04-.37c12.16,18.71,19.5,42.67,19.57,68.82Z"/>
    <path class="cls-15" d="M173.62,303.14h52.01v22.33c-19.55,.04-37.59-8.29-52.01-22.33Z"/>
    <path class="cls-15" d="M277.36,303.14c-14.31,13.95-32.22,22.27-51.66,22.33h-.03v-22.33h51.69Z"/>
    <polygon class="cls-11" points="299.68 144.46 151.62 144.46 161.61 50.7 289.69 50.7 299.68 144.46"/>
    <g>
      <path class="cls-15" d="M256.42,63.74h-62.17c-6.6,0-11.18-6.56-8.91-12.76l3.57-9.75c1.37-3.74,4.93-6.22,8.91-6.22h55.02c3.98,0,7.54,2.48,8.91,6.22l3.57,9.75c2.27,6.19-2.31,12.76-8.91,12.76Z"/>
      <path class="cls-7" d="M251.91,61.55h-52.77c-5.65,0-9.59-5.63-7.64-10.94l3.1-8.46c1.09-2.96,3.91-4.94,7.07-4.94h46.81c3.47,0,6.57,2.17,7.77,5.43l3.06,8.33c1.88,5.14-1.92,10.59-7.39,10.59Z"/>
      <g>
        <g>
          <path class="cls-2" d="M218.05,50.7c0,4.9-3.96,8.86-8.86,8.86s-8.86-3.96-8.86-8.86,3.97-8.86,8.86-8.86,8.86,3.97,8.86,8.86Z"/>
          <path class="cls-7" d="M216.88,50.7c0,4.25-3.44,7.69-7.69,7.69s-7.69-3.44-7.69-7.69,3.44-7.69,7.69-7.69,7.69,3.44,7.69,7.69Z"/>
          <path class="cls-2" d="M215.45,50.7c0,3.46-2.81,6.26-6.27,6.26s-6.26-2.8-6.26-6.26,2.8-6.26,6.26-6.26,6.27,2.8,6.27,6.26Z"/>
        </g>
        <g>
          <path class="cls-2" d="M250.34,50.7c0,4.9-3.96,8.86-8.86,8.86s-8.86-3.96-8.86-8.86,3.97-8.86,8.86-8.86,8.86,3.97,8.86,8.86Z"/>
          <path class="cls-7" d="M249.18,50.7c0,4.25-3.44,7.69-7.69,7.69s-7.69-3.44-7.69-7.69,3.44-7.69,7.69-7.69,7.69,3.44,7.69,7.69Z"/>
          <path class="cls-2" d="M247.75,50.7c0,3.46-2.8,6.26-6.27,6.26s-6.26-2.8-6.26-6.26,2.8-6.26,6.26-6.26,6.27,2.8,6.27,6.26Z"/>
        </g>
      </g>
    </g>
    <polygon class="cls-11" points="282.42 200.78 168.87 200.78 151.62 144.46 299.68 144.46 282.42 200.78"/>
    <path class="cls-12" d="M286.05,138.11h-119l5.8-57.52c.6-6.02,5.68-10.6,11.73-10.6h81.55c7.41,0,13.62,5.61,14.36,12.99l5.56,55.14Z"/>
    <path class="cls-12" d="M184.77,171.11h83.57c2.09,0,3.78,1.7,3.78,3.78v17.56c0,2.09-1.7,3.78-3.78,3.78h-83.57c-2.09,0-3.79-1.7-3.79-3.79v-17.56c0-2.09,1.7-3.78,3.78-3.78Z"/>
    <rect class="cls-14" x="174.93" y="76.82" width="3.03" height="54.43"/>
    <rect class="cls-14" x="233.71" y="76.82" width="3.03" height="54.43"/>
    <path class="cls-14" d="M215.45,137.32c-.07,0-.14-.02-.21-.05-1.31-.74-32.18-18.29-39.12-26.13-7.11-8.04-1.58-14.95-1.52-15.02,.15-.18,.4-.2,.58-.05,.18,.14,.2,.4,.06,.58-.21,.26-5.13,6.44,1.5,13.95,6.84,7.73,38.58,25.77,38.9,25.96,.2,.11,.27,.36,.15,.56-.08,.13-.21,.21-.36,.21Z"/>
    <path class="cls-14" d="M275.18,137.32c-.07,0-.14-.02-.2-.05-1.31-.74-32.18-18.29-39.12-26.13-7.11-8.04-1.58-14.95-1.52-15.02,.15-.18,.41-.2,.58-.05,.18,.14,.2,.4,.06,.58-.21,.26-5.13,6.44,1.5,13.95,6.84,7.73,38.58,25.77,38.9,25.96,.2,.11,.27,.36,.15,.56-.08,.13-.21,.21-.36,.21Z"/>
    <g>
      <path class="cls-14" d="M222.04,137.9c-.24-1.74-3.49-3.13-7.48-3.13s-7.24,1.38-7.48,3.13h14.96Z"/>
      <path class="cls-14" d="M282.66,137.9c-.24-1.74-3.49-3.13-7.48-3.13s-7.24,1.38-7.48,3.13h14.96Z"/>
    </g>
    <rect class="cls-11" x="222.91" y="63.04" width="7.29" height="104.13"/>
    <path class="cls-3" d="M343.31,247.28l-4.86,44.44-.59,5.4c-.41,3.73-3.62,6.77-7.14,6.77l-75.82,6.17c-19.42,1.58-38.89,1.58-58.32,.02l-76.63-6.19c-3.52,0-6.74-3.03-7.14-6.77l-.59-5.4-4.86-44.44c-.45-4.13,2.24-7.54,5.98-7.54h224c3.74,0,6.42,3.41,5.98,7.54Z"/>
    <path class="cls-11" d="M338.45,291.72l-.59,5.4c-.41,3.73-3.62,6.77-7.14,6.77l-75.82,6.17c-19.42,1.58-38.89,1.58-58.32,.02l-76.63-6.19c-3.52,0-6.74-3.03-7.14-6.77l-.59-5.4h226.23Z"/>
    <g>
      <path class="cls-7" d="M343.43,239.74v5.65c0,.27-.02,.54-.04,.81H107.29c-.03-.27-.05-.54-.05-.81v-5.65c0-3.94,2.96-7.16,6.58-7.16h223.02c3.62,0,6.58,3.22,6.58,7.16Z"/>
      <path class="cls-6" d="M343.43,239.74v5.65c0,.27-.02,.54-.04,.81h-55.21l-2.55-13.63h51.22c3.62,0,6.58,3.22,6.58,7.16Z"/>
    </g>
    <path class="cls-15" d="M281.33,258.51v32.54c0,3.73-3.05,6.78-6.78,6.78h-96.89c-3.73,0-6.78-3.05-6.78-6.78v-32.54c0-3.73,3.05-6.78,6.78-6.78h96.89c3.73,0,6.78,3.05,6.78,6.78Z"/>
    <g>
      <path class="cls-11" d="M174.66,185.51l-27.17-10.61c-3.67-1.43-7.85,.4-9.28,4.07l-.73,1.88c-1.44,3.67,.4,7.85,4.07,9.28l27.17,10.61,5.95-15.23Z"/>
      <path class="cls-10" d="M155.44,186.78c-1.12,2.86-4.35,4.28-7.21,3.16-2.86-1.12-4.28-4.35-3.16-7.21,1.12-2.86,4.35-4.28,7.21-3.16,2.86,1.12,4.28,4.35,3.16,7.21Z"/>
      <path class="cls-4" d="M168.69,191.96c-1.12,2.86-4.35,4.28-7.21,3.16-2.86-1.12-4.28-4.35-3.16-7.21,1.12-2.86,4.35-4.28,7.21-3.16,2.86,1.12,4.28,4.35,3.16,7.21Z"/>
      <path class="cls-11" d="M165.95,190.89c-.53,1.35-2.05,2.02-3.4,1.49-1.35-.53-2.02-2.05-1.49-3.4,.53-1.35,2.05-2.02,3.4-1.49,1.35,.53,2.02,2.05,1.49,3.4Z"/>
    </g>
    <g>
      <path class="cls-11" d="M276.67,185.51l27.17-10.61c3.67-1.43,7.85,.4,9.28,4.07l.73,1.88c1.44,3.67-.4,7.85-4.07,9.28l-27.17,10.61-5.95-15.23Z"/>
      <path class="cls-10" d="M295.89,186.78c1.12,2.86,4.35,4.28,7.21,3.16,2.86-1.12,4.28-4.35,3.16-7.21-1.12-2.86-4.35-4.28-7.21-3.16s-4.28,4.35-3.16,7.21Z"/>
      <path class="cls-4" d="M282.63,191.96c1.12,2.86,4.35,4.28,7.21,3.16,2.86-1.12,4.28-4.35,3.16-7.21-1.12-2.86-4.35-4.28-7.21-3.16-2.86,1.12-4.28,4.35-3.16,7.21Z"/>
      <path class="cls-11" d="M285.37,190.89c.53,1.35,2.05,2.02,3.4,1.49,1.35-.53,2.02-2.05,1.49-3.4-.53-1.35-2.05-2.02-3.4-1.49-1.35,.53-2.02,2.05-1.49,3.4Z"/>
    </g>
    <path class="cls-4" d="M301.32,217.14c-8.12,7.74-19.04,12.3-30.7,12.3h-90.57c-11.65,0-22.57-4.55-30.69-12.3,19.84-7.51,46.57-12.11,75.98-12.11s56.14,4.6,75.98,12.11Z"/>
    <path class="cls-8" d="M281.33,258.51v32.54c0,3.73-3.05,6.78-6.78,6.78h-3.98l-6.59-46.11h10.57c3.73,0,6.78,3.05,6.78,6.78Z"/>
    <g>
      <rect class="cls-4" x="120.83" y="262.21" width="16.15" height="18.92" rx="6.03" ry="6.03"/>
      <path class="cls-13" d="M149.57,262.21h4.09c3.33,0,6.03,2.7,6.03,6.03v6.86c0,3.33-2.7,6.03-6.03,6.03h-4.09c-3.33,0-6.03-2.7-6.03-6.03v-6.86c0-3.33,2.7-6.03,6.03-6.03Z"/>
    </g>
    <g>
      <path class="cls-4" d="M323.83,262.21h4.09c3.33,0,6.03,2.7,6.03,6.03v6.86c0,3.33-2.7,6.03-6.03,6.03h-4.09c-3.33,0-6.03-2.7-6.03-6.03v-6.86c0-3.33,2.7-6.03,6.03-6.03Z" transform="translate(651.76 543.35) rotate(180)"/>
      <rect class="cls-13" x="295.09" y="262.21" width="16.16" height="18.92" rx="6.03" ry="6.03" transform="translate(606.34 543.35) rotate(-180)"/>
    </g>
    <rect class="cls-1" x="223.85" y="253.87" width="4.51" height="41.83"/>
    <rect class="cls-1" x="214.56" y="258.62" width="22.18" height="33.31"/>
    <rect class="cls-11" x="185.83" y="174.48" width="81.45" height="18.4"/>
  </g>
  <path class="cls-9" d="M160.52,184.86c0,5.67-4.6,10.26-10.27,10.26s-10.27-4.59-10.27-10.26,4.6-10.27,10.27-10.27,10.27,4.6,10.27,10.27Z"/>
  <path class="cls-9" d="M317.04,184.86c0,8.05-6.53,14.58-14.58,14.58s-14.59-6.53-14.59-14.58,6.53-14.59,14.59-14.59,14.58,6.53,14.58,14.59Z"/>
  <path class="cls-9" d="M164.84,184.86c0,8.05-6.53,14.58-14.59,14.58s-14.58-6.53-14.58-14.58,6.53-14.59,14.58-14.59,14.59,6.53,14.59,14.59Z"/>
  <path class="cls-9" d="M312.72,184.86c0,5.67-4.59,10.26-10.26,10.26s-10.27-4.59-10.27-10.26,4.6-10.27,10.27-10.27,10.26,4.6,10.26,10.27Z"/>
</svg>