<?xml version="1.0" encoding="utf-8"?>
<!-- Generator: Adobe Illustrator 26.4.1, SVG Export Plug-In . SVG Version: 6.00 Build 0)  -->
<svg version="1.1" xmlns="http://www.w3.org/2000/svg" xmlns:xlink="http://www.w3.org/1999/xlink" x="0px" y="0px"
	 viewBox="0 0 465.38 280.85" style="enable-background:new 0 0 465.38 280.85;" xml:space="preserve">
<style type="text/css">
	.st0{fill:#FFFFFF;}
	.st1{display:none;}
	.st2{display:inline;}
	.st3{fill:#091720;}
	.st4{fill:#2D4D60;}
	.st5{fill:#0F2633;}
	.st6{fill:#132F40;}
	.st7{opacity:0.5;}
	.st8{fill:#183B50;}
	.st9{fill:#536E7D;}
	.st10{fill:#405D6E;}
	.st11{fill:#0D212D;}
	.st12{display:inline;opacity:0.3;fill:#0F2633;}
	.st13{fill:#042A3D;}
	.st14{fill:none;stroke:#091720;stroke-miterlimit:10;}
	.st15{fill:none;stroke:#022D47;stroke-width:3;stroke-miterlimit:10;}
	.st16{fill:#4C4B4B;}
	.st17{fill:#305C77;}
	.st18{fill:#8CA5B4;}
	.st19{fill:#708490;}
	.st20{fill:#023859;}
	.st21{fill:none;stroke:#022D47;stroke-miterlimit:10;}
	.st22{fill:#022D47;}
	.st23{fill:#203643;}
	.st24{fill:#A8D9E3;}
	.st25{fill:#294556;}
	.st26{fill:#566E7A;}
	.st27{fill:#344249;}
	.st28{fill:#01273E;}
	.st29{fill:#77C4D3;}
	.st30{fill:#B6C6CF;}
</style>
<g id="BACKGROUND">
</g>
<g id="OBJECTS">
	<g>
		<g class="st1">
			<g class="st2">
				<g>
					<rect x="74.51" y="-3.84" class="st8" width="5.87" height="9.07"/>
				</g>
				<g>
					<path class="st3" d="M289.45,0.47c0,1.44-1.17,2.6-2.6,2.6H185.72c-1.44,0-2.6-1.17-2.6-2.6l0,0c0-1.44,1.16-2.6,2.6-2.6
						h101.12C288.28-2.14,289.45-0.97,289.45,0.47L289.45,0.47z"/>
				</g>
				<g>
					<path class="st3" d="M168.48,7.25c0,3.55-2.88,6.43-6.43,6.43h-58.36c-3.55,0-6.43-2.88-6.43-6.43l0,0
						c0-3.55,2.88-6.43,6.43-6.43h58.36C165.6,0.82,168.48,3.7,168.48,7.25L168.48,7.25z"/>
				</g>
				<g>
					<rect x="260.48" y="-33.02" class="st3" width="98.39" height="35.98"/>
				</g>
				<g>
					<rect x="260.48" y="9.35" class="st3" width="104.84" height="2.19"/>
				</g>
				<g>
					<rect x="264.92" y="1.48" class="st3" width="88.68" height="8.54"/>
				</g>
				<g>
					<rect x="106.62" y="-7.81" class="st3" width="52.49" height="15.06"/>
				</g>
				<g>
					<g>
						<g>
							<path class="st11" d="M100.64,23.39c-8.9,0-16.13-7.24-16.13-16.13s7.24-16.13,16.13-16.13s16.13,7.24,16.13,16.13
								S109.54,23.39,100.64,23.39z M100.64-5.68c-7.13,0-12.94,5.8-12.94,12.94s5.8,12.94,12.94,12.94
								c7.13,0,12.94-5.8,12.94-12.94S107.78-5.68,100.64-5.68z"/>
						</g>
					</g>
					<g>
						<g>
							<path class="st6" d="M100.64,18.87c-6.41,0-11.62-5.21-11.62-11.62c0-6.41,5.21-11.62,11.62-11.62
								c6.41,0,11.62,5.21,11.62,11.62C112.27,13.66,107.05,18.87,100.64,18.87z M100.64-3.3c-5.82,0-10.56,4.74-10.56,10.56
								s4.74,10.56,10.56,10.56c5.82,0,10.56-4.74,10.56-10.56S106.46-3.3,100.64-3.3z"/>
						</g>
					</g>
					<g>
						<g>
							<g>
								<g>
									<rect x="100.11" y="-3.84" class="st6" width="1.07" height="22.18"/>
								</g>
							</g>
							<g>
								<g>
									<rect x="89.55" y="6.72" class="st6" width="22.18" height="1.07"/>
								</g>
							</g>
						</g>
						<g>
							<g>
								<g>
									
										<rect x="89.55" y="6.72" transform="matrix(0.708 -0.7062 0.7062 0.708 24.2622 73.1886)" class="st6" width="22.18" height="1.07"/>
								</g>
							</g>
							<g>
								<g>
									
										<rect x="100.11" y="-3.84" transform="matrix(0.7071 -0.7071 0.7071 0.7071 24.3458 73.2854)" class="st6" width="1.07" height="22.18"/>
								</g>
							</g>
						</g>
					</g>
					<g>
						<g>
							<circle class="st6" cx="100.64" cy="7.25" r="3.52"/>
						</g>
					</g>
					<g>
						<g>
							<path class="st11" d="M102.62,7.25c0,1.09-0.89,1.98-1.98,1.98c-1.09,0-1.98-0.89-1.98-1.98c0-1.09,0.89-1.98,1.98-1.98
								C101.74,5.27,102.62,6.16,102.62,7.25z"/>
						</g>
					</g>
				</g>
				<g>
					<g>
						<g>
							<path class="st11" d="M162.94,23.39c-8.9,0-16.13-7.24-16.13-16.13s7.24-16.13,16.13-16.13c8.9,0,16.13,7.24,16.13,16.13
								S171.83,23.39,162.94,23.39z M162.94-5.68c-7.13,0-12.94,5.8-12.94,12.94s5.8,12.94,12.94,12.94
								c7.13,0,12.93-5.8,12.93-12.94S170.07-5.68,162.94-5.68z"/>
						</g>
					</g>
					<g>
						<g>
							<path class="st6" d="M162.94,18.87c-6.41,0-11.62-5.21-11.62-11.62c0-6.41,5.21-11.62,11.62-11.62
								c6.41,0,11.62,5.21,11.62,11.62C174.56,13.66,169.35,18.87,162.94,18.87z M162.94-3.3c-5.82,0-10.56,4.74-10.56,10.56
								s4.74,10.56,10.56,10.56c5.82,0,10.56-4.74,10.56-10.56S168.76-3.3,162.94-3.3z"/>
						</g>
					</g>
					<g>
						<g>
							<g>
								<g>
									<rect x="162.41" y="-3.84" class="st6" width="1.07" height="22.18"/>
								</g>
							</g>
							<g>
								<g>
									<rect x="151.85" y="6.72" class="st6" width="22.18" height="1.07"/>
								</g>
							</g>
						</g>
						<g>
							<g>
								<g>
									
										<rect x="151.85" y="6.72" transform="matrix(0.7076 -0.7066 0.7066 0.7076 42.5223 117.2587)" class="st6" width="22.18" height="1.07"/>
								</g>
							</g>
							<g>
								<g>
									
										<rect x="162.4" y="-3.84" transform="matrix(0.7071 -0.7071 0.7071 0.7071 42.5956 117.3389)" class="st6" width="1.07" height="22.18"/>
								</g>
							</g>
						</g>
					</g>
					<g>
						<g>
							<path class="st6" d="M166.46,7.25c0,1.95-1.58,3.52-3.52,3.52c-1.95,0-3.52-1.58-3.52-3.52c0-1.95,1.58-3.52,3.52-3.52
								C164.88,3.73,166.46,5.31,166.46,7.25z"/>
						</g>
					</g>
					<g>
						<g>
							<path class="st11" d="M164.92,7.25c0,1.09-0.89,1.98-1.98,1.98c-1.09,0-1.98-0.89-1.98-1.98c0-1.09,0.89-1.98,1.98-1.98
								C164.03,5.27,164.92,6.16,164.92,7.25z"/>
						</g>
					</g>
				</g>
				<g>
					<g>
						<g>
							<path class="st11" d="M212.9,23.31c-11.22,0-20.35-9.13-20.35-20.34c0-11.22,9.13-20.35,20.35-20.35
								c11.22,0,20.34,9.13,20.34,20.35C233.25,14.18,224.12,23.31,212.9,23.31z M212.9-13.35c-9,0-16.31,7.32-16.31,16.31
								c0,8.99,7.32,16.31,16.31,16.31c8.99,0,16.31-7.32,16.31-16.31C229.22-6.03,221.9-13.35,212.9-13.35z"/>
						</g>
					</g>
					<g>
						<g>
							<path class="st6" d="M212.9,17.62c-8.08,0-14.66-6.57-14.66-14.66c0-8.08,6.57-14.66,14.66-14.66
								c8.08,0,14.66,6.58,14.66,14.66C227.56,11.05,220.99,17.62,212.9,17.62z M212.9-10.35c-7.34,0-13.31,5.97-13.31,13.31
								c0,7.34,5.97,13.31,13.31,13.31c7.34,0,13.31-5.97,13.31-13.31C226.22-4.38,220.24-10.35,212.9-10.35z"/>
						</g>
					</g>
					<g>
						<g>
							<g>
								<g>
									<rect x="212.23" y="-11.02" class="st6" width="1.34" height="27.97"/>
								</g>
							</g>
							<g>
								<g>
									<rect x="198.92" y="2.29" class="st6" width="27.97" height="1.34"/>
								</g>
							</g>
						</g>
						<g>
							<g>
								<g>
									
										<rect x="198.92" y="2.29" transform="matrix(0.7067 -0.7075 0.7075 0.7067 60.3409 151.4939)" class="st6" width="27.97" height="1.34"/>
								</g>
							</g>
							<g>
								<g>
									
										<rect x="212.23" y="-11.02" transform="matrix(0.7071 -0.7071 0.7071 0.7071 60.2666 151.4176)" class="st6" width="1.34" height="27.97"/>
								</g>
							</g>
						</g>
					</g>
					<g>
						<g>
							<path class="st6" d="M217.35,2.96c0,2.45-1.99,4.44-4.44,4.44c-2.46,0-4.44-1.99-4.44-4.44c0-2.46,1.99-4.44,4.44-4.44
								C215.36-1.48,217.35,0.51,217.35,2.96z"/>
						</g>
					</g>
					<g>
						<g>
							<path class="st11" d="M215.4,2.96c0,1.38-1.12,2.5-2.5,2.5c-1.38,0-2.5-1.12-2.5-2.5c0-1.38,1.12-2.5,2.5-2.5
								C214.28,0.47,215.4,1.58,215.4,2.96z"/>
						</g>
					</g>
				</g>
				<g>
					<g>
						<g>
							<path class="st11" d="M260.48,23.31c-11.22,0-20.35-9.13-20.35-20.34c0-11.22,9.13-20.35,20.35-20.35
								c11.22,0,20.35,9.13,20.35,20.35C280.82,14.18,271.7,23.31,260.48,23.31z M260.48-13.35c-8.99,0-16.31,7.32-16.31,16.31
								c0,8.99,7.32,16.31,16.31,16.31c9,0,16.31-7.32,16.31-16.31C276.79-6.03,269.47-13.35,260.48-13.35z"/>
						</g>
					</g>
					<g>
						<g>
							<path class="st6" d="M260.48,17.62c-8.08,0-14.66-6.57-14.66-14.66c0-8.08,6.58-14.66,14.66-14.66
								c8.08,0,14.66,6.58,14.66,14.66C275.13,11.05,268.56,17.62,260.48,17.62z M260.48-10.35c-7.34,0-13.31,5.97-13.31,13.31
								c0,7.34,5.97,13.31,13.31,13.31c7.34,0,13.31-5.97,13.31-13.31C273.79-4.38,267.82-10.35,260.48-10.35z"/>
						</g>
					</g>
					<g>
						<g>
							<g>
								<g>
									<rect x="259.81" y="-11.02" class="st6" width="1.34" height="27.97"/>
								</g>
							</g>
							<g>
								<g>
									<rect x="246.49" y="2.29" class="st6" width="27.97" height="1.34"/>
								</g>
							</g>
						</g>
						<g>
							<g>
								<g>
									
										<rect x="246.49" y="2.29" transform="matrix(0.7071 -0.7071 0.7071 0.7071 74.197 185.0537)" class="st6" width="27.97" height="1.34"/>
								</g>
							</g>
							<g>
								<g>
									
										<rect x="259.81" y="-11.02" transform="matrix(0.7071 -0.7071 0.7071 0.7071 74.2016 185.0585)" class="st6" width="1.34" height="27.97"/>
								</g>
							</g>
						</g>
					</g>
					<g>
						<g>
							<path class="st6" d="M264.92,2.96c0,2.45-1.99,4.44-4.44,4.44c-2.45,0-4.44-1.99-4.44-4.44c0-2.46,1.99-4.44,4.44-4.44
								C262.93-1.48,264.92,0.51,264.92,2.96z"/>
						</g>
					</g>
					<g>
						<g>
							<path class="st11" d="M262.97,2.96c0,1.38-1.12,2.5-2.5,2.5c-1.38,0-2.5-1.12-2.5-2.5c0-1.38,1.12-2.5,2.5-2.5
								C261.86,0.47,262.97,1.58,262.97,2.96z"/>
						</g>
					</g>
				</g>
				<g>
					<g>
						<g>
							<path class="st11" d="M308.05,23.31c-11.22,0-20.34-9.13-20.34-20.34c0-11.22,9.13-20.35,20.34-20.35
								c11.22,0,20.35,9.13,20.35,20.35C328.4,14.18,319.27,23.31,308.05,23.31z M308.05-13.35c-8.99,0-16.31,7.32-16.31,16.31
								c0,8.99,7.32,16.31,16.31,16.31c9,0,16.31-7.32,16.31-16.31C324.36-6.03,317.05-13.35,308.05-13.35z"/>
						</g>
					</g>
					<g>
						<g>
							<path class="st6" d="M308.05,17.62c-8.08,0-14.65-6.57-14.65-14.66c0-8.08,6.57-14.66,14.65-14.66
								c8.08,0,14.66,6.58,14.66,14.66C322.71,11.05,316.13,17.62,308.05,17.62z M308.05-10.35c-7.34,0-13.31,5.97-13.31,13.31
								c0,7.34,5.97,13.31,13.31,13.31c7.34,0,13.31-5.97,13.31-13.31C321.36-4.38,315.39-10.35,308.05-10.35z"/>
						</g>
					</g>
					<g>
						<g>
							<g>
								<g>
									<rect x="307.38" y="-11.02" class="st6" width="1.34" height="27.97"/>
								</g>
							</g>
							<g>
								<g>
									<rect x="294.07" y="2.29" class="st6" width="27.97" height="1.34"/>
								</g>
							</g>
						</g>
						<g>
							<g>
								<g>
									
										<rect x="294.07" y="2.29" transform="matrix(0.7068 -0.7074 0.7074 0.7068 88.233 218.7971)" class="st6" width="27.97" height="1.34"/>
								</g>
							</g>
							<g>
								<g>
									
										<rect x="307.38" y="-11.02" transform="matrix(0.7071 -0.7071 0.7071 0.7071 88.1413 218.7039)" class="st6" width="1.34" height="27.97"/>
								</g>
							</g>
						</g>
					</g>
					<g>
						<g>
							<path class="st6" d="M312.5,2.96c0,2.45-1.99,4.44-4.45,4.44c-2.45,0-4.44-1.99-4.44-4.44c0-2.46,1.99-4.44,4.44-4.44
								C310.51-1.48,312.5,0.51,312.5,2.96z"/>
						</g>
					</g>
					<g>
						<g>
							<path class="st11" d="M310.55,2.96c0,1.38-1.12,2.5-2.5,2.5c-1.38,0-2.5-1.12-2.5-2.5c0-1.38,1.12-2.5,2.5-2.5
								C309.43,0.47,310.55,1.58,310.55,2.96z"/>
						</g>
					</g>
				</g>
				<g>
					<polygon class="st8" points="68.26,-9.53 68.26,11.49 49.62,11.49 					"/>
				</g>
				<g>
					<g>
						<path class="st6" d="M68.26,13.09H49.62c-0.88,0-1.6-0.72-1.6-1.6c0-0.88,0.72-1.6,1.6-1.6h18.63c0.88,0,1.6,0.71,1.6,1.6
							C69.86,12.37,69.14,13.09,68.26,13.09z"/>
					</g>
				</g>
				<g>
					<g>
						<path class="st8" d="M352.02,18.69c-0.59,0-1.07-0.48-1.07-1.07v-35c0-0.59,0.48-1.07,1.07-1.07c0.59,0,1.06,0.48,1.06,1.07
							v35C353.08,18.21,352.6,18.69,352.02,18.69z"/>
					</g>
					<g>
						<path class="st8" d="M366.03,18.69c-0.59,0-1.07-0.48-1.07-1.07v-35c0-0.59,0.48-1.07,1.07-1.07c0.59,0,1.07,0.48,1.07,1.07
							v35C367.09,18.21,366.62,18.69,366.03,18.69z"/>
					</g>
					<g>
						<path class="st8" d="M366.03,6.51h-14.01c-0.59,0-1.07-0.48-1.07-1.07c0-0.59,0.48-1.07,1.07-1.07h14.01
							c0.59,0,1.07,0.48,1.07,1.07C367.09,6.04,366.62,6.51,366.03,6.51z"/>
					</g>
					<g>
						<path class="st8" d="M366.03,13.44h-14.01c-0.59,0-1.07-0.48-1.07-1.07c0-0.59,0.48-1.07,1.07-1.07h14.01
							c0.59,0,1.07,0.48,1.07,1.07C367.09,12.96,366.62,13.44,366.03,13.44z"/>
					</g>
				</g>
			</g>
		</g>
		<g>
			<g>
				<g>
					<path class="st3" d="M361.93,136.11c-6.62,0-12.12,4.75-13.3,11.03h-25.1c-1.18-6.28-6.69-11.03-13.3-11.03
						c-3.14,0-6.01,1.07-8.31,2.86V134h-91.88v4.97c-2.3-1.79-5.17-2.86-8.31-2.86c-6.62,0-12.12,4.75-13.3,11.03h-25.1
						c-1.18-6.28-6.68-11.03-13.31-11.03c-7.48,0-13.55,6.07-13.55,13.55c0,7.48,6.07,13.55,13.55,13.55
						c6.62,0,12.12-4.75,13.31-11.03h25.1c1.18,6.28,6.68,11.03,13.3,11.03c7.48,0,13.55-6.07,13.55-13.55
						c0-1.73-0.34-3.38-0.93-4.91h10.37c-0.59,1.52-0.93,3.17-0.93,4.91c0,7.48,6.06,13.55,13.55,13.55
						c7.48,0,13.54-6.07,13.54-13.55c0-1.73-0.34-3.38-0.93-4.91h12.06c-0.59,1.52-0.93,3.17-0.93,4.91
						c0,7.48,6.07,13.55,13.55,13.55c7.48,0,13.55-6.07,13.55-13.55c0-1.73-0.34-3.38-0.93-4.91h10.37
						c-0.59,1.52-0.93,3.17-0.93,4.91c0,7.48,6.07,13.55,13.55,13.55c6.62,0,12.12-4.75,13.3-11.03h25.1
						c1.18,6.28,6.68,11.03,13.3,11.03c7.48,0,13.55-6.07,13.55-13.55C375.48,142.17,369.42,136.11,361.93,136.11z"/>
					<path class="st3" d="M104.8,136.11c-7.48,0-13.55,6.07-13.55,13.55c0,7.48,6.06,13.55,13.55,13.55
						c7.48,0,13.54-6.07,13.54-13.55C118.35,142.17,112.28,136.11,104.8,136.11z"/>
				</g>
				<path class="st8" d="M407.12,72.03c0,1.69-1.37,3.06-3.06,3.06h-4.11c-1.69,0-3.05-1.37-3.05-3.06l0,0
					c0-1.69,1.37-3.05,3.05-3.05h4.11C405.75,68.98,407.12,70.35,407.12,72.03L407.12,72.03z"/>
				<path class="st8" d="M407.12,83.63c0,1.69-1.37,3.05-3.06,3.05h-4.11c-1.69,0-3.05-1.37-3.05-3.05l0,0
					c0-1.69,1.37-3.06,3.05-3.06h4.11C405.75,80.58,407.12,81.95,407.12,83.63L407.12,83.63z"/>
				<path class="st8" d="M407.12,121.81c0,1.69-1.37,3.05-3.06,3.05h-4.11c-1.69,0-3.05-1.37-3.05-3.05l0,0
					c0-1.69,1.37-3.05,3.05-3.05h4.11C405.75,118.76,407.12,120.13,407.12,121.81L407.12,121.81z"/>
				<rect x="386.28" y="63.88" class="st3" width="15.73" height="67.5"/>
				<g>
					<g>
						<path class="st8" d="M402.96,64.96h-17.11c-0.6,0-1.08-0.48-1.08-1.08c0-0.6,0.49-1.08,1.08-1.08h17.11
							c0.6,0,1.08,0.48,1.08,1.08C404.04,64.48,403.56,64.96,402.96,64.96z"/>
					</g>
					<g>
						<path class="st8" d="M402.96,132.47h-17.11c-0.6,0-1.08-0.48-1.08-1.08c0-0.6,0.49-1.08,1.08-1.08h17.11
							c0.6,0,1.08,0.48,1.08,1.08C404.04,131.98,403.56,132.47,402.96,132.47z"/>
					</g>
				</g>
				<path class="st3" d="M383.04,54.12c0,2.99-2.42,5.41-5.41,5.41H132.9c-2.99,0-5.41-2.42-5.41-5.41v-3.78
					c0-2.99,2.42-5.41,5.41-5.41h244.73c2.99,0,5.41,2.42,5.41,5.41V54.12z"/>
				<g>
					<g>
						<g>
							<g>
								<g>
									<path class="st26" d="M152.47,153.78c0,7.48-6.07,13.55-13.55,13.55c-7.48,0-13.55-6.07-13.55-13.55
										c0-7.48,6.07-13.55,13.55-13.55C146.41,140.24,152.47,146.3,152.47,153.78z"/>
								</g>
								<g>
									<path class="st27" d="M150.36,153.78c0,6.32-5.12,11.44-11.44,11.44c-6.32,0-11.44-5.12-11.44-11.44
										c0-6.32,5.12-11.44,11.44-11.44C145.24,142.35,150.36,147.47,150.36,153.78z"/>
								</g>
								<g>
									<path class="st26" d="M147.13,153.78c0,4.53-3.68,8.21-8.21,8.21c-4.53,0-8.21-3.68-8.21-8.21c0-4.53,3.67-8.21,8.21-8.21
										C143.46,145.58,147.13,149.25,147.13,153.78z"/>
								</g>
								<g>
									<path class="st27" d="M144.05,153.78c0,2.83-2.29,5.12-5.12,5.12c-2.83,0-5.12-2.29-5.12-5.12s2.29-5.12,5.12-5.12
										C141.75,148.66,144.05,150.96,144.05,153.78z"/>
								</g>
							</g>
							<g>
								<g>
									<path class="st26" d="M204.18,153.78c0,7.48-6.07,13.55-13.55,13.55c-7.48,0-13.55-6.07-13.55-13.55
										c0-7.48,6.06-13.55,13.55-13.55C198.11,140.24,204.18,146.3,204.18,153.78z"/>
								</g>
								<g>
									<path class="st27" d="M202.07,153.78c0,6.32-5.12,11.44-11.44,11.44c-6.32,0-11.44-5.12-11.44-11.44
										c0-6.32,5.12-11.44,11.44-11.44C196.95,142.35,202.07,147.47,202.07,153.78z"/>
								</g>
								<g>
									<path class="st26" d="M198.83,153.78c0,4.53-3.67,8.21-8.2,8.21c-4.53,0-8.21-3.68-8.21-8.21c0-4.53,3.67-8.21,8.21-8.21
										C195.16,145.58,198.83,149.25,198.83,153.78z"/>
								</g>
								<g>
									<path class="st27" d="M195.75,153.78c0,2.83-2.29,5.12-5.12,5.12c-2.83,0-5.12-2.29-5.12-5.12s2.29-5.12,5.12-5.12
										C193.46,148.66,195.75,150.96,195.75,153.78z"/>
								</g>
							</g>
						</g>
						<rect x="118.84" y="138.13" class="st28" width="91.88" height="10.75"/>
						<g>
							<path class="st28" d="M190.63,155.3h-51.71c-0.83,0-1.51-0.68-1.51-1.51s0.68-1.51,1.51-1.51h51.71
								c0.83,0,1.51,0.68,1.51,1.51S191.46,155.3,190.63,155.3z"/>
						</g>
						<g>
							<path class="st28" d="M182.42,156.3h-35.29c-1.39,0-2.52-1.13-2.52-2.52c0-1.39,1.13-2.52,2.52-2.52h35.29
								c1.39,0,2.52,1.13,2.52,2.52C184.94,155.18,183.81,156.3,182.42,156.3z"/>
						</g>
						<g>
							<path class="st3" d="M180.82,154.29h-32.08c-0.28,0-0.5-0.23-0.5-0.5c0-0.28,0.22-0.5,0.5-0.5h32.08c0.28,0,0.5,0.22,0.5,0.5
								C181.32,154.06,181.1,154.29,180.82,154.29z"/>
						</g>
					</g>
					<g>
						<g>
							<g>
								<g>
									<circle class="st26" cx="299.12" cy="153.78" r="13.55"/>
								</g>
								<g>
									<circle class="st27" cx="299.12" cy="153.78" r="11.44"/>
								</g>
								<g>
									<path class="st26" d="M307.33,153.78c0,4.53-3.67,8.21-8.21,8.21c-4.53,0-8.21-3.68-8.21-8.21c0-4.53,3.67-8.21,8.21-8.21
										C303.65,145.58,307.33,149.25,307.33,153.78z"/>
								</g>
								<g>
									<path class="st27" d="M304.24,153.78c0,2.83-2.29,5.12-5.12,5.12s-5.12-2.29-5.12-5.12s2.29-5.12,5.12-5.12
										S304.24,150.96,304.24,153.78z"/>
								</g>
							</g>
							<g>
								<g>
									<circle class="st26" cx="350.83" cy="153.78" r="13.55"/>
								</g>
								<g>
									<path class="st27" d="M362.26,153.78c0,6.32-5.12,11.44-11.43,11.44c-6.32,0-11.44-5.12-11.44-11.44
										c0-6.32,5.12-11.44,11.44-11.44C357.14,142.35,362.26,147.47,362.26,153.78z"/>
								</g>
								<g>
									<path class="st26" d="M359.03,153.78c0,4.53-3.67,8.21-8.2,8.21c-4.53,0-8.21-3.68-8.21-8.21c0-4.53,3.67-8.21,8.21-8.21
										C355.36,145.58,359.03,149.25,359.03,153.78z"/>
								</g>
								<g>
									<path class="st27" d="M355.95,153.78c0,2.83-2.29,5.12-5.12,5.12c-2.83,0-5.12-2.29-5.12-5.12s2.29-5.12,5.12-5.12
										C353.65,148.66,355.95,150.96,355.95,153.78z"/>
								</g>
							</g>
						</g>
						<rect x="279.04" y="138.13" class="st28" width="91.88" height="10.75"/>
						<g>
							<path class="st28" d="M350.83,155.3h-51.71c-0.83,0-1.51-0.68-1.51-1.51s0.68-1.51,1.51-1.51h51.71
								c0.83,0,1.51,0.68,1.51,1.51S351.66,155.3,350.83,155.3z"/>
						</g>
						<g>
							<path class="st28" d="M342.62,156.3h-35.29c-1.39,0-2.52-1.13-2.52-2.52c0-1.39,1.13-2.52,2.52-2.52h35.29
								c1.39,0,2.52,1.13,2.52,2.52C345.14,155.18,344.01,156.3,342.62,156.3z"/>
						</g>
						<g>
							<path class="st3" d="M341.02,154.29h-32.08c-0.28,0-0.5-0.23-0.5-0.5c0-0.28,0.23-0.5,0.5-0.5h32.08c0.28,0,0.5,0.22,0.5,0.5
								C341.52,154.06,341.29,154.29,341.02,154.29z"/>
						</g>
					</g>
				</g>
				<g>
					<g>
						<g>
							<g>
								<path class="st26" d="M239.78,153.78c0,7.48-6.06,13.55-13.54,13.55c-7.48,0-13.55-6.07-13.55-13.55
									c0-7.48,6.06-13.55,13.55-13.55C233.71,140.24,239.78,146.3,239.78,153.78z"/>
							</g>
							<g>
								<path class="st27" d="M237.67,153.78c0,6.32-5.12,11.44-11.44,11.44c-6.32,0-11.44-5.12-11.44-11.44
									c0-6.32,5.12-11.44,11.44-11.44C232.55,142.35,237.67,147.47,237.67,153.78z"/>
							</g>
							<g>
								<path class="st26" d="M234.44,153.78c0,4.53-3.67,8.21-8.21,8.21c-4.53,0-8.21-3.68-8.21-8.21c0-4.53,3.67-8.21,8.21-8.21
									C230.76,145.58,234.44,149.25,234.44,153.78z"/>
							</g>
							<g>
								<path class="st27" d="M231.35,153.78c0,2.83-2.29,5.12-5.12,5.12c-2.83,0-5.12-2.29-5.12-5.12s2.29-5.12,5.12-5.12
									C229.06,148.66,231.35,150.96,231.35,153.78z"/>
							</g>
						</g>
						<g>
							<g>
								<path class="st26" d="M107.24,153.78c0,7.48-6.06,13.55-13.55,13.55c-7.48,0-13.55-6.07-13.55-13.55
									c0-7.48,6.07-13.55,13.55-13.55C101.17,140.24,107.24,146.3,107.24,153.78z"/>
							</g>
							<g>
								<path class="st27" d="M105.13,153.78c0,6.32-5.12,11.44-11.44,11.44c-6.32,0-11.44-5.12-11.44-11.44
									c0-6.32,5.12-11.44,11.44-11.44C100.01,142.35,105.13,147.47,105.13,153.78z"/>
							</g>
							<g>
								<path class="st26" d="M101.9,153.78c0,4.53-3.67,8.21-8.21,8.21c-4.53,0-8.21-3.68-8.21-8.21c0-4.53,3.67-8.21,8.21-8.21
									C98.22,145.58,101.9,149.25,101.9,153.78z"/>
							</g>
							<g>
								<path class="st27" d="M98.81,153.78c0,2.83-2.29,5.12-5.12,5.12s-5.12-2.29-5.12-5.12s2.29-5.12,5.12-5.12
									S98.81,150.96,98.81,153.78z"/>
							</g>
						</g>
						<g>
							<g>
								<path class="st26" d="M277.06,153.78c0,7.48-6.07,13.55-13.55,13.55c-7.48,0-13.55-6.07-13.55-13.55
									c0-7.48,6.07-13.55,13.55-13.55C271,140.24,277.06,146.3,277.06,153.78z"/>
							</g>
							<g>
								<path class="st27" d="M274.96,153.78c0,6.32-5.12,11.44-11.44,11.44c-6.32,0-11.44-5.12-11.44-11.44
									c0-6.32,5.12-11.44,11.44-11.44C269.83,142.35,274.96,147.47,274.96,153.78z"/>
							</g>
							<g>
								<path class="st26" d="M271.72,153.78c0,4.53-3.68,8.21-8.21,8.21c-4.53,0-8.21-3.68-8.21-8.21c0-4.53,3.67-8.21,8.21-8.21
									C268.05,145.58,271.72,149.25,271.72,153.78z"/>
							</g>
							<g>
								<path class="st27" d="M268.64,153.78c0,2.83-2.29,5.12-5.12,5.12c-2.83,0-5.12-2.29-5.12-5.12s2.3-5.12,5.12-5.12
									C266.35,148.66,268.64,150.96,268.64,153.78z"/>
							</g>
						</g>
					</g>
					<g>
						<rect x="198.94" y="138.13" class="st28" width="91.88" height="10.75"/>
					</g>
				</g>
				<path class="st20" d="M120.73,50.69c-69.34,0-69.34,80.4-69.34,80.4c0,11.95,9.69,21.64,21.64,21.64h48.26l5.14-11.41h78.22
					l5.14,11.41h72.01l5.14-11.41h78.22l5.14,11.41h23.53V50.69H120.73z"/>
				<g>
					<path class="st6" d="M54.48,107.93h339.34V68.98H74.27C63.13,80.53,57.41,95.55,54.48,107.93z"/>
					<path class="st29" d="M56.32,101.12h45.08c7.64,0,13.84-6.2,13.84-13.84c0-7.64-6.2-13.84-13.84-13.84H70.35
						C63.5,82.05,59.12,91.96,56.32,101.12z"/>
				</g>
				<g>
					<path class="st10" d="M393.82,128.72H51.46c-0.07,1.51-0.08,2.37-0.08,2.37c0,1.56,0.17,3.08,0.49,4.54h341.95V128.72z"/>
					<path class="st10" d="M53.05,114.91c-0.44,2.53-0.76,4.85-1,6.91h341.77v-6.91H53.05z"/>
				</g>
				<g>
					<path class="st29" d="M259.72,96.88c0,2.99-2.42,5.41-5.41,5.41h-38.45c-2.99,0-5.41-2.42-5.41-5.41V80.03
						c0-2.99,2.42-5.41,5.41-5.41h38.45c2.99,0,5.41,2.42,5.41,5.41V96.88z"/>
					<path class="st3" d="M254.31,72.45c4.18,0,7.57,3.4,7.57,7.58v16.86c0,4.17-3.4,7.57-7.57,7.57h-38.45
						c-4.18,0-7.57-3.4-7.57-7.57V80.03c0-4.18,3.4-7.58,7.57-7.58H254.31 M254.31,71.37h-38.45c-4.77,0-8.66,3.88-8.66,8.66v16.86
						c0,4.77,3.88,8.66,8.66,8.66h38.45c4.77,0,8.66-3.88,8.66-8.66V80.03C262.97,75.25,259.09,71.37,254.31,71.37L254.31,71.37z"/>
				</g>
				<g>
					<path class="st29" d="M321.23,96.88c0,2.99-2.42,5.41-5.41,5.41h-38.45c-2.99,0-5.41-2.42-5.41-5.41V80.03
						c0-2.99,2.42-5.41,5.41-5.41h38.45c2.99,0,5.41,2.42,5.41,5.41V96.88z"/>
					<path class="st3" d="M315.82,72.45c4.18,0,7.58,3.4,7.58,7.58v16.86c0,4.17-3.4,7.57-7.58,7.57h-38.45
						c-4.17,0-7.57-3.4-7.57-7.57V80.03c0-4.18,3.4-7.58,7.57-7.58H315.82 M315.82,71.37h-38.45c-4.77,0-8.66,3.88-8.66,8.66v16.86
						c0,4.77,3.88,8.66,8.66,8.66h38.45c4.77,0,8.66-3.88,8.66-8.66V80.03C324.48,75.25,320.59,71.37,315.82,71.37L315.82,71.37z"/>
				</g>
				<g>
					<path class="st29" d="M383.04,96.88c0,2.99-2.42,5.41-5.41,5.41h-38.45c-2.99,0-5.41-2.42-5.41-5.41V80.03
						c0-2.99,2.42-5.41,5.41-5.41h38.45c2.99,0,5.41,2.42,5.41,5.41V96.88z"/>
					<path class="st3" d="M377.62,72.45c4.17,0,7.57,3.4,7.57,7.58v16.86c0,4.17-3.4,7.57-7.57,7.57h-38.45
						c-4.17,0-7.57-3.4-7.57-7.57V80.03c0-4.18,3.4-7.58,7.57-7.58H377.62 M377.62,71.37h-38.45c-4.77,0-8.66,3.88-8.66,8.66v16.86
						c0,4.77,3.88,8.66,8.66,8.66h38.45c4.77,0,8.66-3.88,8.66-8.66V80.03C386.28,75.25,382.4,71.37,377.62,71.37L377.62,71.37z"/>
				</g>
				<path class="st18" d="M182.75,75.61h-35.94c-2.99,0-5.41,2.42-5.41,5.41v60.3h46.76v-60.3
					C188.16,78.03,185.73,75.61,182.75,75.61z"/>
				<path class="st10" d="M182.75,75.61h-35.94c-2.99,0-5.41,2.42-5.41,5.41v60.3h46.76v-60.3
					C188.16,78.03,185.73,75.61,182.75,75.61z"/>
				<g>
					<rect x="141.4" y="128.72" class="st30" width="46.76" height="6.91"/>
					<rect x="141.4" y="114.91" class="st30" width="46.76" height="6.91"/>
				</g>
				<path class="st3" d="M185.45,141.32v-60.3c0-1.49-1.21-2.71-2.71-2.71h-35.94c-1.49,0-2.71,1.21-2.71,2.71v60.3h1.08v-60.3
					c0-0.9,0.73-1.62,1.62-1.62h35.94c0.9,0,1.62,0.73,1.62,1.62v60.3H185.45z"/>
				<path class="st29" d="M180.82,100.13c0,2.99-2.42,5.41-5.41,5.41h-21.26c-2.99,0-5.41-2.42-5.41-5.41V87.64
					c0-2.99,2.42-5.41,5.41-5.41h21.26c2.99,0,5.41,2.42,5.41,5.41V100.13z"/>
				<g>
					<path class="st24" d="M77.22,73.45L59.85,91.42c-1.39,3.27-2.56,6.53-3.53,9.71h5.4l26.76-27.68H77.22z"/>
					<path class="st24" d="M113.89,81.36c-0.6-1.26-1.38-2.41-2.31-3.43l-22.42,23.19h5.63L113.89,81.36z"/>
					<path class="st24" d="M105.61,74.11c-1.33-0.42-2.74-0.66-4.21-0.66h-0.78l-26.76,27.68h5.63L105.61,74.11z"/>
				</g>
				<g>
					<path class="st24" d="M225.83,74.62l-15.38,15.91v6.36c0,1.45,0.58,2.75,1.5,3.72l25.13-25.99H225.83z"/>
					<path class="st24" d="M259.72,85.4v-5.37c0-0.14-0.03-0.27-0.04-0.41l-21.92,22.67h5.63L259.72,85.4z"/>
					<path class="st24" d="M254.81,74.67c-0.16-0.01-0.33-0.05-0.5-0.05h-5.08l-26.76,27.68h5.63L254.81,74.67z"/>
				</g>
				<g>
					<path class="st24" d="M291.35,74.62l-19.39,20.05v2.21c0,2.52,1.73,4.62,4.07,5.22l26.58-27.49H291.35z"/>
					<path class="st24" d="M319.2,75.83c-0.93-0.75-2.09-1.22-3.38-1.22h-1.07l-26.76,27.68h5.62L319.2,75.83z"/>
					<polygon class="st24" points="321.23,89.54 321.23,83.73 303.28,102.29 308.91,102.29 					"/>
				</g>
				<g>
					<path class="st24" d="M382.63,77.99c-0.53-1.3-1.54-2.34-2.82-2.91l-26.3,27.21h5.62L382.63,77.99z"/>
					<path class="st24" d="M356.87,74.62L333.98,98.3c0.62,2.3,2.7,4,5.2,4h2.19l26.76-27.68H356.87z"/>
					<polygon class="st24" points="383.04,93.39 383.04,87.57 368.8,102.29 374.42,102.29 					"/>
				</g>
			</g>
			<g>
				<path class="st10" d="M86.86,65.49c0,0.59-0.48,1.08-1.08,1.08c-0.6,0-1.08-0.49-1.08-1.08c0-0.6,0.48-1.08,1.08-1.08
					C86.38,64.41,86.86,64.9,86.86,65.49z"/>
			</g>
			<g>
				<g>
					<path class="st10" d="M58.95,139.16c0,0.59-0.48,1.08-1.08,1.08c-0.6,0-1.08-0.49-1.08-1.08c0-0.6,0.48-1.08,1.08-1.08
						C58.47,138.08,58.95,138.56,58.95,139.16z"/>
				</g>
				<g>
					<path class="st10" d="M65.07,139.16c0,0.59-0.48,1.08-1.08,1.08c-0.6,0-1.08-0.49-1.08-1.08c0-0.6,0.48-1.08,1.08-1.08
						C64.58,138.08,65.07,138.56,65.07,139.16z"/>
				</g>
				<g>
					<path class="st10" d="M71.18,139.16c0,0.59-0.49,1.08-1.08,1.08c-0.6,0-1.08-0.49-1.08-1.08c0-0.6,0.48-1.08,1.08-1.08
						C70.7,138.08,71.18,138.56,71.18,139.16z"/>
				</g>
				<g>
					<path class="st10" d="M77.3,139.16c0,0.59-0.48,1.08-1.08,1.08c-0.6,0-1.08-0.49-1.08-1.08c0-0.6,0.48-1.08,1.08-1.08
						C76.81,138.08,77.3,138.56,77.3,139.16z"/>
				</g>
				<g>
					<path class="st10" d="M83.41,139.16c0,0.59-0.48,1.08-1.08,1.08c-0.59,0-1.08-0.49-1.08-1.08c0-0.6,0.48-1.08,1.08-1.08
						C82.93,138.08,83.41,138.56,83.41,139.16z"/>
				</g>
				<g>
					<path class="st10" d="M89.53,139.16c0,0.59-0.48,1.08-1.08,1.08c-0.59,0-1.08-0.49-1.08-1.08c0-0.6,0.48-1.08,1.08-1.08
						C89.05,138.08,89.53,138.56,89.53,139.16z"/>
				</g>
				<g>
					<path class="st10" d="M95.65,139.16c0,0.59-0.48,1.08-1.08,1.08c-0.6,0-1.08-0.49-1.08-1.08c0-0.6,0.48-1.08,1.08-1.08
						C95.16,138.08,95.65,138.56,95.65,139.16z"/>
				</g>
				<g>
					<path class="st10" d="M101.76,139.16c0,0.59-0.48,1.08-1.08,1.08c-0.6,0-1.08-0.49-1.08-1.08c0-0.6,0.48-1.08,1.08-1.08
						C101.28,138.08,101.76,138.56,101.76,139.16z"/>
				</g>
				<g>
					<path class="st10" d="M107.88,139.16c0,0.59-0.48,1.08-1.08,1.08c-0.6,0-1.08-0.49-1.08-1.08c0-0.6,0.48-1.08,1.08-1.08
						C107.39,138.08,107.88,138.56,107.88,139.16z"/>
				</g>
				<g>
					<path class="st10" d="M114,139.16c0,0.59-0.49,1.08-1.08,1.08c-0.6,0-1.08-0.49-1.08-1.08c0-0.6,0.48-1.08,1.08-1.08
						C113.51,138.08,114,138.56,114,139.16z"/>
				</g>
				<g>
					<path class="st10" d="M120.11,139.16c0,0.59-0.48,1.08-1.08,1.08s-1.08-0.49-1.08-1.08c0-0.6,0.48-1.08,1.08-1.08
						S120.11,138.56,120.11,139.16z"/>
				</g>
				<g>
					<path class="st10" d="M126.23,139.16c0,0.59-0.48,1.08-1.08,1.08c-0.59,0-1.08-0.49-1.08-1.08c0-0.6,0.48-1.08,1.08-1.08
						C125.74,138.08,126.23,138.56,126.23,139.16z"/>
				</g>
				<g>
					<path class="st10" d="M132.34,139.16c0,0.59-0.48,1.08-1.08,1.08c-0.59,0-1.08-0.49-1.08-1.08c0-0.6,0.48-1.08,1.08-1.08
						C131.86,138.08,132.34,138.56,132.34,139.16z"/>
				</g>
				<g>
					<path class="st10" d="M138.46,139.16c0,0.59-0.48,1.08-1.08,1.08c-0.6,0-1.08-0.49-1.08-1.08c0-0.6,0.48-1.08,1.08-1.08
						C137.97,138.08,138.46,138.56,138.46,139.16z"/>
				</g>
			</g>
			<g>
				<g>
					<path class="st10" d="M194.57,139.16c0,0.59-0.48,1.08-1.08,1.08c-0.6,0-1.08-0.49-1.08-1.08c0-0.6,0.48-1.08,1.08-1.08
						C194.09,138.08,194.57,138.56,194.57,139.16z"/>
				</g>
				<g>
					<path class="st10" d="M200.69,139.16c0,0.59-0.48,1.08-1.08,1.08c-0.6,0-1.08-0.49-1.08-1.08c0-0.6,0.48-1.08,1.08-1.08
						C200.21,138.08,200.69,138.56,200.69,139.16z"/>
				</g>
				<g>
					<path class="st10" d="M206.81,139.16c0,0.59-0.49,1.08-1.08,1.08c-0.6,0-1.08-0.49-1.08-1.08c0-0.6,0.48-1.08,1.08-1.08
						C206.32,138.08,206.81,138.56,206.81,139.16z"/>
				</g>
				<g>
					<path class="st10" d="M212.92,139.16c0,0.59-0.48,1.08-1.08,1.08c-0.6,0-1.08-0.49-1.08-1.08c0-0.6,0.48-1.08,1.08-1.08
						C212.44,138.08,212.92,138.56,212.92,139.16z"/>
				</g>
				<g>
					<path class="st10" d="M219.04,139.16c0,0.59-0.48,1.08-1.08,1.08c-0.59,0-1.08-0.49-1.08-1.08c0-0.6,0.48-1.08,1.08-1.08
						C218.55,138.08,219.04,138.56,219.04,139.16z"/>
				</g>
				<g>
					<path class="st10" d="M225.15,139.16c0,0.59-0.48,1.08-1.08,1.08c-0.59,0-1.08-0.49-1.08-1.08c0-0.6,0.48-1.08,1.08-1.08
						C224.67,138.08,225.15,138.56,225.15,139.16z"/>
				</g>
				<g>
					<path class="st10" d="M231.27,139.16c0,0.59-0.49,1.08-1.08,1.08c-0.6,0-1.08-0.49-1.08-1.08c0-0.6,0.48-1.08,1.08-1.08
						C230.79,138.08,231.27,138.56,231.27,139.16z"/>
				</g>
				<g>
					<path class="st10" d="M237.39,139.16c0,0.59-0.49,1.08-1.08,1.08c-0.6,0-1.08-0.49-1.08-1.08c0-0.6,0.48-1.08,1.08-1.08
						C236.9,138.08,237.39,138.56,237.39,139.16z"/>
				</g>
				<g>
					<path class="st10" d="M243.5,139.16c0,0.59-0.48,1.08-1.08,1.08c-0.6,0-1.08-0.49-1.08-1.08c0-0.6,0.48-1.08,1.08-1.08
						C243.02,138.08,243.5,138.56,243.5,139.16z"/>
				</g>
				<g>
					<path class="st10" d="M249.62,139.16c0,0.59-0.48,1.08-1.08,1.08c-0.6,0-1.08-0.49-1.08-1.08c0-0.6,0.48-1.08,1.08-1.08
						C249.13,138.08,249.62,138.56,249.62,139.16z"/>
				</g>
				<g>
					<path class="st10" d="M255.74,139.16c0,0.59-0.49,1.08-1.08,1.08c-0.59,0-1.08-0.49-1.08-1.08c0-0.6,0.48-1.08,1.08-1.08
						C255.25,138.08,255.74,138.56,255.74,139.16z"/>
				</g>
				<g>
					<path class="st10" d="M261.85,139.16c0,0.59-0.49,1.08-1.08,1.08c-0.6,0-1.08-0.49-1.08-1.08c0-0.6,0.48-1.08,1.08-1.08
						C261.37,138.08,261.85,138.56,261.85,139.16z"/>
				</g>
				<g>
					<path class="st10" d="M267.97,139.16c0,0.59-0.48,1.08-1.08,1.08c-0.6,0-1.08-0.49-1.08-1.08c0-0.6,0.48-1.08,1.08-1.08
						C267.48,138.08,267.97,138.56,267.97,139.16z"/>
				</g>
				<g>
					<path class="st10" d="M274.08,139.16c0,0.59-0.49,1.08-1.08,1.08s-1.08-0.49-1.08-1.08c0-0.6,0.48-1.08,1.08-1.08
						S274.08,138.56,274.08,139.16z"/>
				</g>
			</g>
			<g>
				<g>
					<path class="st10" d="M274.08,139.16c0,0.59-0.48,1.08-1.08,1.08c-0.6,0-1.08-0.49-1.08-1.08c0-0.6,0.48-1.08,1.08-1.08
						C273.6,138.08,274.08,138.56,274.08,139.16z"/>
				</g>
				<g>
					<path class="st10" d="M280.2,139.16c0,0.59-0.49,1.08-1.08,1.08c-0.59,0-1.08-0.49-1.08-1.08c0-0.6,0.48-1.08,1.08-1.08
						C279.71,138.08,280.2,138.56,280.2,139.16z"/>
				</g>
				<g>
					<path class="st10" d="M286.32,139.16c0,0.59-0.49,1.08-1.08,1.08s-1.08-0.49-1.08-1.08c0-0.6,0.48-1.08,1.08-1.08
						S286.32,138.56,286.32,139.16z"/>
				</g>
				<g>
					<path class="st10" d="M292.43,139.16c0,0.59-0.48,1.08-1.08,1.08c-0.6,0-1.08-0.49-1.08-1.08c0-0.6,0.48-1.08,1.08-1.08
						C291.95,138.08,292.43,138.56,292.43,139.16z"/>
				</g>
				<g>
					<path class="st10" d="M298.55,139.16c0,0.59-0.48,1.08-1.08,1.08c-0.6,0-1.08-0.49-1.08-1.08c0-0.6,0.48-1.08,1.08-1.08
						C298.06,138.08,298.55,138.56,298.55,139.16z"/>
				</g>
				<g>
					<path class="st10" d="M304.66,139.16c0,0.59-0.49,1.08-1.08,1.08c-0.59,0-1.08-0.49-1.08-1.08c0-0.6,0.48-1.08,1.08-1.08
						C304.18,138.08,304.66,138.56,304.66,139.16z"/>
				</g>
				<g>
					<path class="st10" d="M310.78,139.16c0,0.59-0.49,1.08-1.08,1.08c-0.59,0-1.08-0.49-1.08-1.08c0-0.6,0.48-1.08,1.08-1.08
						C310.29,138.08,310.78,138.56,310.78,139.16z"/>
				</g>
				<g>
					<path class="st10" d="M316.9,139.16c0,0.59-0.49,1.08-1.08,1.08c-0.59,0-1.08-0.49-1.08-1.08c0-0.6,0.48-1.08,1.08-1.08
						C316.41,138.08,316.9,138.56,316.9,139.16z"/>
				</g>
				<g>
					<path class="st10" d="M323.01,139.16c0,0.59-0.48,1.08-1.08,1.08c-0.6,0-1.08-0.49-1.08-1.08c0-0.6,0.48-1.08,1.08-1.08
						C322.53,138.08,323.01,138.56,323.01,139.16z"/>
				</g>
				<g>
					<path class="st10" d="M329.13,139.16c0,0.59-0.48,1.08-1.08,1.08c-0.6,0-1.08-0.49-1.08-1.08c0-0.6,0.48-1.08,1.08-1.08
						C328.64,138.08,329.13,138.56,329.13,139.16z"/>
				</g>
				<g>
					<path class="st10" d="M335.24,139.16c0,0.59-0.49,1.08-1.08,1.08s-1.08-0.49-1.08-1.08c0-0.6,0.48-1.08,1.08-1.08
						S335.24,138.56,335.24,139.16z"/>
				</g>
				<g>
					<path class="st10" d="M341.36,139.16c0,0.59-0.48,1.08-1.08,1.08c-0.59,0-1.08-0.49-1.08-1.08c0-0.6,0.48-1.08,1.08-1.08
						C340.88,138.08,341.36,138.56,341.36,139.16z"/>
				</g>
				<g>
					<path class="st10" d="M347.48,139.16c0,0.59-0.48,1.08-1.08,1.08c-0.6,0-1.08-0.49-1.08-1.08c0-0.6,0.48-1.08,1.08-1.08
						C346.99,138.08,347.48,138.56,347.48,139.16z"/>
				</g>
				<g>
					<path class="st10" d="M353.59,139.16c0,0.59-0.49,1.08-1.08,1.08c-0.59,0-1.08-0.49-1.08-1.08c0-0.6,0.48-1.08,1.08-1.08
						C353.11,138.08,353.59,138.56,353.59,139.16z"/>
				</g>
			</g>
			<g>
				<g>
					<path class="st10" d="M353.59,139.16c0,0.59-0.48,1.08-1.08,1.08c-0.6,0-1.08-0.49-1.08-1.08c0-0.6,0.48-1.08,1.08-1.08
						C353.11,138.08,353.59,138.56,353.59,139.16z"/>
				</g>
				<g>
					<path class="st10" d="M359.71,139.16c0,0.59-0.49,1.08-1.08,1.08c-0.6,0-1.08-0.49-1.08-1.08c0-0.6,0.48-1.08,1.08-1.08
						C359.22,138.08,359.71,138.56,359.71,139.16z"/>
				</g>
				<g>
					<path class="st10" d="M365.83,139.16c0,0.59-0.49,1.08-1.08,1.08c-0.59,0-1.08-0.49-1.08-1.08c0-0.6,0.48-1.08,1.08-1.08
						C365.34,138.08,365.83,138.56,365.83,139.16z"/>
				</g>
				<g>
					<path class="st10" d="M371.94,139.16c0,0.59-0.49,1.08-1.08,1.08c-0.6,0-1.08-0.49-1.08-1.08c0-0.6,0.48-1.08,1.08-1.08
						C371.46,138.08,371.94,138.56,371.94,139.16z"/>
				</g>
				<g>
					<path class="st10" d="M378.06,139.16c0,0.59-0.48,1.08-1.08,1.08c-0.6,0-1.08-0.49-1.08-1.08c0-0.6,0.48-1.08,1.08-1.08
						C377.57,138.08,378.06,138.56,378.06,139.16z"/>
				</g>
				<g>
					<path class="st10" d="M384.17,139.16c0,0.59-0.48,1.08-1.08,1.08c-0.6,0-1.08-0.49-1.08-1.08c0-0.6,0.48-1.08,1.08-1.08
						C383.69,138.08,384.17,138.56,384.17,139.16z"/>
				</g>
				<g>
					<path class="st10" d="M390.29,139.16c0,0.59-0.49,1.08-1.08,1.08c-0.59,0-1.08-0.49-1.08-1.08c0-0.6,0.48-1.08,1.08-1.08
						C389.8,138.08,390.29,138.56,390.29,139.16z"/>
				</g>
			</g>
			<g>
				<path class="st10" d="M95.16,65.49c0,0.59-0.48,1.08-1.08,1.08c-0.6,0-1.08-0.49-1.08-1.08c0-0.6,0.48-1.08,1.08-1.08
					C94.68,64.41,95.16,64.9,95.16,65.49z"/>
			</g>
			<g>
				<path class="st10" d="M103.47,65.49c0,0.59-0.49,1.08-1.08,1.08c-0.59,0-1.08-0.49-1.08-1.08c0-0.6,0.48-1.08,1.08-1.08
					C102.98,64.41,103.47,64.9,103.47,65.49z"/>
			</g>
			<g>
				<path class="st10" d="M111.77,65.49c0,0.59-0.48,1.08-1.08,1.08c-0.6,0-1.08-0.49-1.08-1.08c0-0.6,0.48-1.08,1.08-1.08
					C111.29,64.41,111.77,64.9,111.77,65.49z"/>
			</g>
			<g>
				<path class="st10" d="M120.08,65.49c0,0.59-0.49,1.08-1.08,1.08c-0.59,0-1.08-0.49-1.08-1.08c0-0.6,0.48-1.08,1.08-1.08
					C119.59,64.41,120.08,64.9,120.08,65.49z"/>
			</g>
			<g>
				<path class="st10" d="M128.38,65.49c0,0.59-0.48,1.08-1.08,1.08c-0.6,0-1.08-0.49-1.08-1.08c0-0.6,0.48-1.08,1.08-1.08
					C127.9,64.41,128.38,64.9,128.38,65.49z"/>
			</g>
			<g>
				<path class="st10" d="M136.69,65.49c0,0.59-0.49,1.08-1.08,1.08c-0.59,0-1.08-0.49-1.08-1.08c0-0.6,0.48-1.08,1.08-1.08
					C136.2,64.41,136.69,64.9,136.69,65.49z"/>
			</g>
			<g>
				<path class="st10" d="M144.99,65.49c0,0.59-0.49,1.08-1.08,1.08s-1.08-0.49-1.08-1.08c0-0.6,0.48-1.08,1.08-1.08
					S144.99,64.9,144.99,65.49z"/>
			</g>
			<g>
				<path class="st10" d="M153.29,65.49c0,0.59-0.48,1.08-1.08,1.08c-0.6,0-1.08-0.49-1.08-1.08c0-0.6,0.48-1.08,1.08-1.08
					C152.81,64.41,153.29,64.9,153.29,65.49z"/>
			</g>
			<g>
				<path class="st10" d="M161.6,65.49c0,0.59-0.49,1.08-1.08,1.08c-0.6,0-1.08-0.49-1.08-1.08c0-0.6,0.48-1.08,1.08-1.08
					C161.11,64.41,161.6,64.9,161.6,65.49z"/>
			</g>
			<g>
				<path class="st10" d="M169.9,65.49c0,0.59-0.48,1.08-1.08,1.08c-0.6,0-1.08-0.49-1.08-1.08c0-0.6,0.48-1.08,1.08-1.08
					C169.42,64.41,169.9,64.9,169.9,65.49z"/>
			</g>
			<g>
				<path class="st10" d="M178.21,65.49c0,0.59-0.49,1.08-1.08,1.08c-0.59,0-1.08-0.49-1.08-1.08c0-0.6,0.48-1.08,1.08-1.08
					C177.72,64.41,178.21,64.9,178.21,65.49z"/>
			</g>
			<g>
				<path class="st10" d="M186.51,65.49c0,0.59-0.48,1.08-1.08,1.08c-0.59,0-1.08-0.49-1.08-1.08c0-0.6,0.48-1.08,1.08-1.08
					C186.03,64.41,186.51,64.9,186.51,65.49z"/>
			</g>
			<g>
				<path class="st10" d="M194.81,65.49c0,0.59-0.49,1.08-1.08,1.08s-1.08-0.49-1.08-1.08c0-0.6,0.48-1.08,1.08-1.08
					S194.81,64.9,194.81,65.49z"/>
			</g>
			<g>
				<path class="st10" d="M203.12,65.49c0,0.59-0.48,1.08-1.08,1.08c-0.59,0-1.08-0.49-1.08-1.08c0-0.6,0.48-1.08,1.08-1.08
					C202.63,64.41,203.12,64.9,203.12,65.49z"/>
			</g>
			<g>
				<path class="st10" d="M211.42,65.49c0,0.59-0.49,1.08-1.08,1.08c-0.6,0-1.08-0.49-1.08-1.08c0-0.6,0.48-1.08,1.08-1.08
					C210.94,64.41,211.42,64.9,211.42,65.49z"/>
			</g>
			<g>
				<path class="st10" d="M219.73,65.49c0,0.59-0.48,1.08-1.08,1.08c-0.6,0-1.08-0.49-1.08-1.08c0-0.6,0.48-1.08,1.08-1.08
					C219.24,64.41,219.73,64.9,219.73,65.49z"/>
			</g>
			<g>
				<path class="st10" d="M228.03,65.49c0,0.59-0.48,1.08-1.08,1.08c-0.6,0-1.08-0.49-1.08-1.08c0-0.6,0.48-1.08,1.08-1.08
					C227.55,64.41,228.03,64.9,228.03,65.49z"/>
			</g>
			<g>
				<path class="st10" d="M236.33,65.49c0,0.59-0.48,1.08-1.08,1.08c-0.6,0-1.08-0.49-1.08-1.08c0-0.6,0.48-1.08,1.08-1.08
					C235.85,64.41,236.33,64.9,236.33,65.49z"/>
			</g>
			<g>
				<path class="st10" d="M244.64,65.49c0,0.59-0.48,1.08-1.08,1.08c-0.6,0-1.08-0.49-1.08-1.08c0-0.6,0.48-1.08,1.08-1.08
					C244.15,64.41,244.64,64.9,244.64,65.49z"/>
			</g>
			<g>
				<path class="st10" d="M252.94,65.49c0,0.59-0.48,1.08-1.08,1.08s-1.08-0.49-1.08-1.08c0-0.6,0.48-1.08,1.08-1.08
					S252.94,64.9,252.94,65.49z"/>
			</g>
			<g>
				<path class="st10" d="M261.25,65.49c0,0.59-0.48,1.08-1.08,1.08c-0.6,0-1.08-0.49-1.08-1.08c0-0.6,0.48-1.08,1.08-1.08
					C260.76,64.41,261.25,64.9,261.25,65.49z"/>
			</g>
			<g>
				<path class="st10" d="M269.55,65.49c0,0.59-0.48,1.08-1.08,1.08c-0.6,0-1.08-0.49-1.08-1.08c0-0.6,0.48-1.08,1.08-1.08
					C269.07,64.41,269.55,64.9,269.55,65.49z"/>
			</g>
			<g>
				<path class="st10" d="M277.86,65.49c0,0.59-0.48,1.08-1.08,1.08c-0.6,0-1.08-0.49-1.08-1.08c0-0.6,0.48-1.08,1.08-1.08
					C277.37,64.41,277.86,64.9,277.86,65.49z"/>
			</g>
			<g>
				<path class="st10" d="M286.16,65.49c0,0.59-0.48,1.08-1.08,1.08c-0.6,0-1.08-0.49-1.08-1.08c0-0.6,0.48-1.08,1.08-1.08
					C285.68,64.41,286.16,64.9,286.16,65.49z"/>
			</g>
			<g>
				<path class="st10" d="M294.46,65.49c0,0.59-0.48,1.08-1.08,1.08c-0.6,0-1.08-0.49-1.08-1.08c0-0.6,0.48-1.08,1.08-1.08
					C293.98,64.41,294.46,64.9,294.46,65.49z"/>
			</g>
			<g>
				<path class="st10" d="M302.77,65.49c0,0.59-0.48,1.08-1.08,1.08c-0.6,0-1.08-0.49-1.08-1.08c0-0.6,0.48-1.08,1.08-1.08
					C302.28,64.41,302.77,64.9,302.77,65.49z"/>
			</g>
			<g>
				<path class="st10" d="M311.07,65.49c0,0.59-0.48,1.08-1.08,1.08c-0.6,0-1.08-0.49-1.08-1.08c0-0.6,0.48-1.08,1.08-1.08
					C310.59,64.41,311.07,64.9,311.07,65.49z"/>
			</g>
			<g>
				<path class="st10" d="M319.38,65.49c0,0.59-0.48,1.08-1.08,1.08c-0.6,0-1.08-0.49-1.08-1.08c0-0.6,0.48-1.08,1.08-1.08
					C318.89,64.41,319.38,64.9,319.38,65.49z"/>
			</g>
			<g>
				<path class="st10" d="M327.68,65.49c0,0.59-0.48,1.08-1.08,1.08c-0.6,0-1.08-0.49-1.08-1.08c0-0.6,0.48-1.08,1.08-1.08
					C327.2,64.41,327.68,64.9,327.68,65.49z"/>
			</g>
			<g>
				<path class="st10" d="M335.99,65.49c0,0.59-0.48,1.08-1.08,1.08c-0.6,0-1.08-0.49-1.08-1.08c0-0.6,0.48-1.08,1.08-1.08
					C335.5,64.41,335.99,64.9,335.99,65.49z"/>
			</g>
			<g>
				<path class="st10" d="M344.29,65.49c0,0.59-0.48,1.08-1.08,1.08c-0.6,0-1.08-0.49-1.08-1.08c0-0.6,0.48-1.08,1.08-1.08
					C343.8,64.41,344.29,64.9,344.29,65.49z"/>
			</g>
			<g>
				<path class="st10" d="M352.59,65.49c0,0.59-0.48,1.08-1.08,1.08c-0.6,0-1.08-0.49-1.08-1.08c0-0.6,0.48-1.08,1.08-1.08
					C352.11,64.41,352.59,64.9,352.59,65.49z"/>
			</g>
			<g>
				<path class="st10" d="M360.9,65.49c0,0.59-0.48,1.08-1.08,1.08c-0.6,0-1.08-0.49-1.08-1.08c0-0.6,0.48-1.08,1.08-1.08
					C360.41,64.41,360.9,64.9,360.9,65.49z"/>
			</g>
			<g>
				<path class="st10" d="M369.2,65.49c0,0.59-0.48,1.08-1.08,1.08c-0.6,0-1.08-0.49-1.08-1.08c0-0.6,0.48-1.08,1.08-1.08
					C368.72,64.41,369.2,64.9,369.2,65.49z"/>
			</g>
			<g>
				<path class="st10" d="M377.5,65.49c0,0.59-0.48,1.08-1.08,1.08c-0.6,0-1.08-0.49-1.08-1.08c0-0.6,0.48-1.08,1.08-1.08
					C377.02,64.41,377.5,64.9,377.5,65.49z"/>
			</g>
			<g>
				<path class="st10" d="M385.81,65.49c0,0.59-0.48,1.08-1.08,1.08c-0.6,0-1.08-0.49-1.08-1.08c0-0.6,0.48-1.08,1.08-1.08
					C385.33,64.41,385.81,64.9,385.81,65.49z"/>
			</g>
			<g>
				<path class="st24" d="M177.07,82.49l-22.29,23.05h5.13l20.08-20.77C179.32,83.7,178.29,82.88,177.07,82.49z"/>
				<path class="st24" d="M155.96,82.23l-7.23,7.47v10.43c0,0.06,0.01,0.12,0.01,0.18l17.49-18.09H155.96z"/>
				<polygon class="st24" points="180.82,93.03 168.73,105.54 173.86,105.54 180.82,98.34 				"/>
			</g>
			<g>
				<path class="st3" d="M167.86,40.76c0,0.77-0.63,1.4-1.4,1.4H141c-0.77,0-1.4-0.63-1.4-1.4l0,0c0-0.77,0.63-1.4,1.4-1.4h25.46
					C167.24,39.36,167.86,39.99,167.86,40.76L167.86,40.76z"/>
				<rect x="142.05" y="40.76" class="st3" width="23.36" height="5.27"/>
			</g>
			<g>
				<path class="st3" d="M215.09,40.76c0,0.77-0.63,1.4-1.4,1.4h-25.46c-0.77,0-1.4-0.63-1.4-1.4l0,0c0-0.77,0.63-1.4,1.4-1.4h25.46
					C214.46,39.36,215.09,39.99,215.09,40.76L215.09,40.76z"/>
				<rect x="189.28" y="40.76" class="st3" width="23.36" height="5.27"/>
			</g>
			<g>
				<path class="st3" d="M318.97,40.76c0,0.77-0.63,1.4-1.4,1.4h-25.46c-0.77,0-1.4-0.63-1.4-1.4l0,0c0-0.77,0.63-1.4,1.4-1.4h25.46
					C318.34,39.36,318.97,39.99,318.97,40.76L318.97,40.76z"/>
				<rect x="293.16" y="40.76" class="st3" width="23.36" height="5.27"/>
			</g>
			<g>
				<path class="st3" d="M371.45,40.76c0,0.77-0.62,1.4-1.4,1.4h-25.46c-0.77,0-1.4-0.63-1.4-1.4l0,0c0-0.77,0.63-1.4,1.4-1.4h25.46
					C370.82,39.36,371.45,39.99,371.45,40.76L371.45,40.76z"/>
				<rect x="345.64" y="40.76" class="st3" width="23.36" height="5.27"/>
			</g>
		</g>
	</g>
	<g>
		<g>
			<path class="st20" d="M110.88,188.43h3.29v23.43h-3.29V188.43z M112.92,198.75h13v3.12h-13V198.75z M124.19,188.43h3.29v23.43
				h-3.29V188.43z"/>
			<path class="st20" d="M133.68,210.82c-1.02-0.85-1.53-2.15-1.53-3.89c0-1.65,0.47-2.89,1.4-3.72s2.35-1.24,4.24-1.24h4.75
				l0.23,2.64h-4.96c-0.86,0-1.5,0.19-1.93,0.57c-0.42,0.38-0.64,0.96-0.64,1.75c0,0.85,0.28,1.48,0.85,1.89
				c0.56,0.41,1.42,0.61,2.57,0.61c1.26,0,2.19-0.13,2.81-0.4s0.93-0.69,0.93-1.26l0.34,2.35c-0.29,0.45-0.65,0.82-1.07,1.11
				c-0.42,0.29-0.92,0.51-1.47,0.65c-0.56,0.14-1.19,0.22-1.89,0.22C136.24,212.1,134.7,211.67,133.68,210.82z M142.39,201.25
				c0-1.1-0.29-1.95-0.88-2.55c-0.59-0.61-1.42-0.91-2.49-0.91c-0.67,0-1.32,0.1-1.96,0.31c-0.64,0.2-1.21,0.49-1.7,0.85l-2.4-1.64
				c0.63-0.76,1.47-1.36,2.51-1.78c1.04-0.42,2.19-0.64,3.46-0.64c1.39,0,2.57,0.24,3.56,0.73c0.99,0.49,1.74,1.2,2.26,2.13
				c0.52,0.93,0.77,2.05,0.77,3.36v10.75h-3.13V201.25z"/>
			<path class="st20" d="M152.67,211.52c-0.89-0.39-1.6-0.95-2.14-1.7c-0.54-0.75-0.89-1.64-1.04-2.68h3.19
				c0.12,0.62,0.44,1.11,0.97,1.45c0.53,0.34,1.22,0.52,2.05,0.52c0.93,0,1.66-0.2,2.18-0.61s0.77-0.99,0.77-1.74v-0.02
				c0-0.58-0.19-1.03-0.56-1.35c-0.37-0.32-0.9-0.48-1.59-0.48h-2.63v-2.8h2.63c0.5,0,0.9-0.17,1.18-0.5s0.42-0.8,0.42-1.4v-0.02
				c0-0.73-0.23-1.29-0.68-1.69s-1.08-0.6-1.9-0.6c-0.76,0-1.4,0.17-1.92,0.52c-0.52,0.34-0.86,0.83-1.05,1.45h-3.17
				c0.31-1.58,1.02-2.8,2.11-3.67c1.1-0.87,2.49-1.3,4.17-1.3c1.82,0,3.22,0.39,4.22,1.18s1.5,1.89,1.5,3.32v0.02
				c0,0.91-0.22,1.7-0.66,2.37s-1.06,1.16-1.85,1.47c0.98,0.14,1.73,0.53,2.26,1.17c0.53,0.64,0.8,1.47,0.8,2.5v0.02
				c0,1.64-0.54,2.92-1.62,3.82c-1.08,0.9-2.6,1.35-4.57,1.35C154.58,212.1,153.55,211.9,152.67,211.52z"/>
			<path class="st20" d="M166.21,195.13h3.27v16.73h-3.27V195.13z M168.14,208.89h6.19c0.66,0,1.16-0.18,1.51-0.55
				s0.53-0.88,0.53-1.55v-0.05c0-0.7-0.18-1.24-0.53-1.63s-0.86-0.58-1.51-0.58h-6.19v-2.96h6.19c0.56,0,0.99-0.14,1.29-0.42
				s0.45-0.68,0.45-1.19c0-0.59-0.15-1.05-0.45-1.38c-0.3-0.33-0.72-0.49-1.26-0.49h-6.22v-2.96h6.33c1.56,0,2.77,0.36,3.63,1.09
				c0.86,0.72,1.29,1.75,1.29,3.07c0,1.02-0.32,1.86-0.95,2.52c-0.63,0.66-1.53,1.08-2.67,1.27c1.25,0.24,2.21,0.74,2.9,1.52
				c0.69,0.78,1.03,1.75,1.03,2.92v0.05c0,1.36-0.46,2.42-1.38,3.17c-0.92,0.75-2.22,1.12-3.89,1.12h-6.28V208.89z"/>
			<path class="st20" d="M184.77,210.82c-1.02-0.85-1.53-2.15-1.53-3.89c0-1.65,0.47-2.89,1.4-3.72s2.35-1.24,4.24-1.24h4.75
				l0.23,2.64h-4.96c-0.86,0-1.5,0.19-1.93,0.57c-0.42,0.38-0.64,0.96-0.64,1.75c0,0.85,0.28,1.48,0.85,1.89
				c0.56,0.41,1.42,0.61,2.57,0.61c1.26,0,2.19-0.13,2.81-0.4s0.93-0.69,0.93-1.26l0.34,2.35c-0.29,0.45-0.65,0.82-1.07,1.11
				c-0.42,0.29-0.92,0.51-1.47,0.65c-0.56,0.14-1.19,0.22-1.89,0.22C187.33,212.1,185.79,211.67,184.77,210.82z M193.49,201.25
				c0-1.1-0.29-1.95-0.88-2.55c-0.59-0.61-1.42-0.91-2.49-0.91c-0.67,0-1.32,0.1-1.96,0.31c-0.64,0.2-1.21,0.49-1.7,0.85l-2.4-1.64
				c0.63-0.76,1.47-1.36,2.51-1.78c1.04-0.42,2.19-0.64,3.46-0.64c1.39,0,2.57,0.24,3.56,0.73c0.99,0.49,1.74,1.2,2.26,2.13
				c0.52,0.93,0.77,2.05,0.77,3.36v10.75h-3.13V201.25z"/>
			<path class="st20" d="M201.61,195.13h3.29v16.73h-3.29V195.13z M203.66,202.15h10.26v2.96h-10.26V202.15z M212.18,195.13h3.29
				v16.73h-3.29V195.13z"/>
			<path class="st20" d="M231.13,211.84v-11.88l0.39,0.42l-8.04,11.46h-2.85v-16.71h3.25v12.15l-0.39-0.42l8.07-11.73h2.82v16.71
				H231.13z"/>
			<path class="st20" d="M242.43,211.23c-1.1-0.58-1.93-1.43-2.51-2.55c-0.58-1.12-0.86-2.48-0.86-4.07v-1.89
				c0-1.65,0.28-3.07,0.83-4.24c0.55-1.17,1.36-2.06,2.41-2.67c1.05-0.61,2.32-0.92,3.8-0.92c1.4,0,2.59,0.35,3.58,1.05
				s1.74,1.71,2.26,3.03c0.52,1.32,0.78,2.91,0.78,4.75v1.1h-11.28v-2.64h8.15c-0.1-1.36-0.45-2.43-1.06-3.18
				c-0.61-0.76-1.42-1.14-2.44-1.14c-1.25,0-2.21,0.41-2.89,1.22c-0.68,0.82-1.02,1.97-1.02,3.46v2.13c0,1.39,0.37,2.45,1.1,3.19
				s1.77,1.11,3.11,1.11c0.67,0,1.33-0.13,1.98-0.4s1.24-0.64,1.76-1.13l2.16,2.16c-0.83,0.79-1.76,1.41-2.79,1.84
				c-1.03,0.44-2.07,0.65-3.11,0.65C244.84,212.1,243.52,211.81,242.43,211.23z"/>
			<path class="st20" d="M268.94,211.24c-1.08-0.57-1.9-1.4-2.47-2.48c-0.57-1.08-0.85-2.4-0.85-3.93v-2.76
				c0-1.51,0.28-2.81,0.85-3.88c0.57-1.07,1.39-1.89,2.47-2.46c1.08-0.56,2.38-0.85,3.91-0.85c0.87,0,1.69,0.1,2.46,0.31
				c0.77,0.21,1.46,0.51,2.07,0.91s1.12,0.88,1.53,1.45l-2.37,2.13c-0.47-0.54-1.03-0.95-1.66-1.24s-1.29-0.44-1.98-0.44
				c-1.27,0-2.25,0.36-2.95,1.06c-0.7,0.71-1.05,1.71-1.05,3v2.76c0,1.32,0.35,2.34,1.04,3.06c0.69,0.72,1.68,1.08,2.96,1.08
				c0.7,0,1.36-0.16,2-0.47s1.18-0.75,1.64-1.32l2.37,2.29c-0.42,0.56-0.94,1.03-1.55,1.43c-0.61,0.39-1.3,0.69-2.07,0.89
				c-0.77,0.2-1.58,0.31-2.44,0.31C271.32,212.1,270.02,211.81,268.94,211.24z"/>
			<path class="st20" d="M283.26,210.82c-1.02-0.85-1.53-2.15-1.53-3.89c0-1.65,0.47-2.89,1.4-3.72c0.94-0.83,2.35-1.24,4.24-1.24
				h4.75l0.22,2.64h-4.96c-0.86,0-1.5,0.19-1.92,0.57c-0.42,0.38-0.64,0.96-0.64,1.75c0,0.85,0.28,1.48,0.85,1.89
				c0.56,0.41,1.42,0.61,2.57,0.61c1.26,0,2.19-0.13,2.81-0.4c0.62-0.27,0.93-0.69,0.93-1.26l0.34,2.35
				c-0.29,0.45-0.65,0.82-1.07,1.11c-0.42,0.29-0.92,0.51-1.47,0.65c-0.56,0.14-1.19,0.22-1.88,0.22
				C285.82,212.1,284.28,211.67,283.26,210.82z M291.97,201.25c0-1.1-0.29-1.95-0.88-2.55c-0.59-0.61-1.42-0.91-2.49-0.91
				c-0.67,0-1.32,0.1-1.96,0.31c-0.64,0.2-1.21,0.49-1.7,0.85l-2.4-1.64c0.63-0.76,1.47-1.36,2.51-1.78
				c1.04-0.42,2.19-0.64,3.46-0.64c1.38,0,2.57,0.24,3.56,0.73c0.99,0.49,1.74,1.2,2.26,2.13c0.52,0.93,0.77,2.05,0.77,3.36v10.75
				h-3.13V201.25z"/>
			<path class="st20" d="M310.6,211.84v-11.88l0.39,0.42l-8.04,11.46h-2.85v-16.71h3.25v12.15l-0.39-0.42l8.07-11.73h2.82v16.71
				H310.6z M303.23,190.51c-0.8-0.96-1.2-2.4-1.2-4.33h2.64c0,1.07,0.18,1.88,0.54,2.41c0.36,0.53,0.9,0.8,1.62,0.8h0.29
				c0.72,0,1.26-0.27,1.62-0.8c0.36-0.53,0.54-1.33,0.54-2.41h2.64c0,1.92-0.4,3.36-1.2,4.33c-0.8,0.96-2,1.44-3.6,1.44h-0.29
				C305.23,191.95,304.03,191.47,303.23,190.51z"/>
			<path class="st20" d="M318.21,195.13h12.99v2.96h-12.99V195.13z M323.06,196.89h3.29v14.97h-3.29V196.89z"/>
			<path class="st20" d="M336.27,210.82c-1.02-0.85-1.53-2.15-1.53-3.89c0-1.65,0.47-2.89,1.4-3.72c0.94-0.83,2.35-1.24,4.24-1.24
				h4.75l0.22,2.64h-4.96c-0.86,0-1.5,0.19-1.92,0.57c-0.42,0.38-0.64,0.96-0.64,1.75c0,0.85,0.28,1.48,0.85,1.89
				c0.56,0.41,1.42,0.61,2.57,0.61c1.26,0,2.19-0.13,2.81-0.4c0.62-0.27,0.93-0.69,0.93-1.26l0.34,2.35
				c-0.29,0.45-0.65,0.82-1.07,1.11c-0.42,0.29-0.92,0.51-1.47,0.65c-0.56,0.14-1.19,0.22-1.88,0.22
				C338.83,212.1,337.29,211.67,336.27,210.82z M344.99,201.25c0-1.1-0.29-1.95-0.88-2.55c-0.59-0.61-1.42-0.91-2.49-0.91
				c-0.67,0-1.32,0.1-1.96,0.31c-0.64,0.2-1.21,0.49-1.7,0.85l-2.4-1.64c0.63-0.76,1.47-1.36,2.51-1.78
				c1.04-0.42,2.19-0.64,3.46-0.64c1.38,0,2.57,0.24,3.56,0.73c0.99,0.49,1.74,1.2,2.26,2.13c0.52,0.93,0.77,2.05,0.77,3.36v10.75
				h-3.13V201.25z"/>
		</g>
	</g>
</g>
<g id="DESIGNED_BY_FREEPIK">
</g>
</svg>
